# xmcd
#
# Track frame offsets: 
#        150
#        14986
#        30522
#        45043
#        63163
#        75570
#        89141
#        99685
#        125291
#
# Disc length: 1844 seconds
#
# Revision: 0
# Processed by: cddbd v1.5.2PL0 Copyright (c) Steve Scherf et al.
# Submitted via: ExactAudioCopy v1.0b4
#
DISCID=6a073209
DTITLE=Various Artist - Cobalt Blues
DYEAR=1900
DGENRE=Blues
TTITLE0=Charles Brown - Livin' In Misery
TTITLE1=Clarence "Gatemouth" Brown - Somebody Got To Go
TTITLE2=B.B. King - Guess Who
TTITLE3=Lead Belly - Poor Howard - Green Corn
TTITLE4=Lightnin’ Hopkins - Bring Me My Shotgun
TTITLE5=Dinah Washington - Blues For A Day
TTITLE6=John Lee Hooker - Crawlin' Black Spider
TTITLE7=Bo Diddley - Somebody's Cryin'
TTITLE8=Elmore James - I Done Somebody Wrong
EXTD=
EXTT0=
EXTT1=
EXTT2=
EXTT3=
EXTT4=
EXTT5=
EXTT6=
EXTT7=
EXTT8=
PLAYORDER=
